<svg xmlns="http://www.w3.org/2000/svg" viewBox="0 0 900 240" role="img" aria-labelledby="title desc">
  <title id="title">Griff Weather Logo</title>
  <desc id="desc">Brand mark with emblem and orange Griff Weather wordmark.</desc>
  <g>
    <circle cx="90" cy="120" r="72" fill="#0f172a" />
    <path d="M45 138c20-26 38-35 61-35 10 0 19 2 30 7-13 2-23 7-30 15 16 0 29 5 38 15-14 2-28 3-41 3-20 0-39-2-58-5z" fill="#ffffff" />
    <path d="M72 84c10-6 22-9 36-9 12 0 24 3 34 9-10 5-21 8-33 8-14 0-26-3-37-8z" fill="#ffffff" />
    <circle cx="122" cy="103" r="4" fill="#0f172a" />
  </g>
  <line x1="190" y1="40" x2="190" y2="200" stroke="#1f2937" stroke-width="2" />
  <text x="220" y="120" fill="#ff7a00" font-family="Arial, Helvetica, sans-serif" font-size="98" font-weight="800" letter-spacing="2">
    GRIFF
  </text>
  <text x="220" y="186" fill="#ff7a00" font-family="Arial, Helvetica, sans-serif" font-size="72" font-weight="800" letter-spacing="2">
    WEATHER
  </text>
</svg>
